<svg width="30" height="30" viewBox="0 0 30 30" fill="none" xmlns="http://www.w3.org/2000/svg">
<path d="M14.4883 4C16.095 4 17.5649 4.27821 18.8779 4.85938L18.877 4.86035C20.2028 5.42796 21.2603 6.28468 22.0068 7.43848C22.7851 8.6413 23.0583 10.0725 22.9082 11.6592L22.8359 12.4277L22.0732 12.5518L19.3369 12.9951C19.8505 13.2197 20.3404 13.4818 20.8057 13.7822H20.8066C21.6481 14.3053 22.3268 14.9943 22.8301 15.8408H22.8291C23.386 16.7451 23.6299 17.8346 23.6299 19.0469C23.6298 20.488 23.244 21.7652 22.417 22.8105C21.6335 23.8245 20.5586 24.5562 19.2461 25.0303L19.2471 25.0312C17.9676 25.5003 16.5183 25.7227 14.918 25.7227C13.5071 25.7226 12.2309 25.562 11.1035 25.2217L11.0986 25.2197C9.99727 24.8808 9.03804 24.3821 8.24805 23.7051C7.45996 23.0296 6.86645 22.2104 6.48047 21.2568L6.47559 21.2432L6.4707 21.2305C6.11312 20.2695 5.96422 19.2272 6.00684 18.1191L6.03711 17.3477L6.79199 17.1816L10.1943 16.4326C9.74648 16.2239 9.3184 15.9923 8.91113 15.7363C8.11515 15.236 7.46225 14.5841 6.96191 13.7881L6.95703 13.7793L6.95117 13.7705C6.43434 12.909 6.20703 11.8877 6.20703 10.7617C6.20708 9.36514 6.55932 8.11265 7.30957 7.05762L7.31348 7.05176L7.31836 7.0459C8.06836 6.02326 9.08232 5.2665 10.3223 4.76465V4.76367C11.5715 4.24681 12.9661 4.00001 14.4883 4ZM12.3076 17.2051C12.3439 17.9461 12.4947 18.4722 12.7031 18.8369C12.9412 19.2013 13.2471 19.468 13.6357 19.6523C14.0656 19.8367 14.5641 19.9384 15.1475 19.9385C15.6378 19.9385 16.0377 19.8804 16.3604 19.7842C16.688 19.6675 16.8817 19.5392 16.9922 19.4287C17.0925 19.3283 17.1006 19.2697 17.1006 19.2188C17.1006 19.0486 17.0539 18.9605 16.9443 18.8691L16.9316 18.8584L16.9199 18.8477C16.7062 18.6578 16.3593 18.4558 15.8262 18.2725L15.8164 18.2695C15.2518 18.0692 14.5974 17.8655 13.8506 17.6602L13.8467 17.6592C13.3333 17.5159 12.8208 17.363 12.3076 17.2051ZM14.3447 9.66895C13.8368 9.66897 13.4718 9.73524 13.2188 9.83008C12.9828 9.92549 12.8474 10.0339 12.7656 10.1318C12.7105 10.2164 12.6788 10.3119 12.6787 10.4463C12.6787 10.5551 12.7043 10.617 12.7959 10.6973C12.974 10.8531 13.287 11.0376 13.792 11.2236C14.0615 11.3132 14.3568 11.4067 14.6787 11.502L15.751 11.8027L15.7607 11.8057C16.0642 11.8904 16.3676 11.979 16.6709 12.0713C16.6734 11.6496 16.6272 11.3044 16.542 11.0244C16.4485 10.7171 16.3098 10.4824 16.1377 10.2988L16.126 10.2871L16.1152 10.2734C15.9697 10.1072 15.7723 9.96837 15.4941 9.86719L15.4756 9.86035L15.457 9.85254C15.1838 9.74078 14.8209 9.66895 14.3447 9.66895Z" fill="#101820" stroke="white" stroke-width="2"/>
</svg>
